<mxfile host="65bd71144e">
    <diagram id="2f404044-711c-603c-8f00-f6bb4c023d3c" name="Page-1">
        <mxGraphModel dx="1723" dy="1169" grid="1" gridSize="10" guides="1" tooltips="1" connect="1" arrows="1" fold="1" page="1" pageScale="1" pageWidth="1169" pageHeight="827" background="none" math="0" shadow="0">
            <root>
                <mxCell id="0"/>
                <mxCell id="1" parent="0"/>
                <mxCell id="2_33ajj9EVAp_yL2VxGF-64" value="客户端" style="rounded=1;whiteSpace=wrap;html=1;fillColor=#d5e8d4;strokeColor=#82b366;" parent="1" vertex="1">
                    <mxGeometry x="750" y="300" width="270" height="90" as="geometry"/>
                </mxCell>
                <mxCell id="2_33ajj9EVAp_yL2VxGF-74" style="edgeStyle=orthogonalEdgeStyle;rounded=0;orthogonalLoop=1;jettySize=auto;html=1;" parent="1" source="2_33ajj9EVAp_yL2VxGF-67" target="2_33ajj9EVAp_yL2VxGF-69" edge="1">
                    <mxGeometry relative="1" as="geometry">
                        <Array as="points">
                            <mxPoint x="870" y="820"/>
                            <mxPoint x="870" y="820"/>
                        </Array>
                    </mxGeometry>
                </mxCell>
                <mxCell id="2_33ajj9EVAp_yL2VxGF-75" style="edgeStyle=orthogonalEdgeStyle;rounded=0;orthogonalLoop=1;jettySize=auto;html=1;entryX=0.5;entryY=0;entryDx=0;entryDy=0;" parent="1" source="2_33ajj9EVAp_yL2VxGF-67" target="2_33ajj9EVAp_yL2VxGF-70" edge="1">
                    <mxGeometry relative="1" as="geometry">
                        <mxPoint x="1020" y="580" as="targetPoint"/>
                        <Array as="points">
                            <mxPoint x="870" y="790"/>
                            <mxPoint x="1030" y="790"/>
                        </Array>
                    </mxGeometry>
                </mxCell>
                <mxCell id="2_33ajj9EVAp_yL2VxGF-67" value="proxy" style="rounded=1;whiteSpace=wrap;html=1;fillColor=#f8cecc;strokeColor=#b85450;" parent="1" vertex="1">
                    <mxGeometry x="810" y="660" width="120" height="60" as="geometry"/>
                </mxCell>
                <mxCell id="2_33ajj9EVAp_yL2VxGF-68" value="server" style="rounded=1;whiteSpace=wrap;html=1;fillColor=#fff2cc;strokeColor=#d6b656;" parent="1" vertex="1">
                    <mxGeometry x="670" y="860" width="120" height="60" as="geometry"/>
                </mxCell>
                <mxCell id="2_33ajj9EVAp_yL2VxGF-69" value="server" style="rounded=1;whiteSpace=wrap;html=1;fillColor=#fff2cc;strokeColor=#d6b656;" parent="1" vertex="1">
                    <mxGeometry x="820" y="860" width="120" height="60" as="geometry"/>
                </mxCell>
                <mxCell id="2_33ajj9EVAp_yL2VxGF-70" value="server" style="rounded=1;whiteSpace=wrap;html=1;fillColor=#fff2cc;strokeColor=#d6b656;" parent="1" vertex="1">
                    <mxGeometry x="970" y="860" width="120" height="60" as="geometry"/>
                </mxCell>
                <mxCell id="2_33ajj9EVAp_yL2VxGF-73" value="" style="endArrow=classic;html=1;rounded=0;exitX=0.25;exitY=1;exitDx=0;exitDy=0;entryX=0.5;entryY=0;entryDx=0;entryDy=0;" parent="1" source="2_33ajj9EVAp_yL2VxGF-67" target="2_33ajj9EVAp_yL2VxGF-68" edge="1">
                    <mxGeometry width="50" height="50" relative="1" as="geometry">
                        <mxPoint x="1020" y="660" as="sourcePoint"/>
                        <mxPoint x="1070" y="610" as="targetPoint"/>
                    </mxGeometry>
                </mxCell>
                <mxCell id="2_33ajj9EVAp_yL2VxGF-76" value="FE" style="rounded=1;whiteSpace=wrap;html=1;fillColor=#d5e8d4;strokeColor=#82b366;" parent="1" vertex="1">
                    <mxGeometry x="1280" y="600" width="120" height="60" as="geometry"/>
                </mxCell>
                <mxCell id="2_33ajj9EVAp_yL2VxGF-77" value="dashboard" style="rounded=1;whiteSpace=wrap;html=1;fillColor=#60a917;strokeColor=#2D7600;fontColor=#ffffff;" parent="1" vertex="1">
                    <mxGeometry x="1280" y="660" width="120" height="60" as="geometry"/>
                </mxCell>
                <mxCell id="2_33ajj9EVAp_yL2VxGF-78" value="zk" style="rounded=1;whiteSpace=wrap;html=1;" parent="1" vertex="1">
                    <mxGeometry x="1550" y="770" width="120" height="60" as="geometry"/>
                </mxCell>
                <mxCell id="2_33ajj9EVAp_yL2VxGF-79" value="zk" style="rounded=1;whiteSpace=wrap;html=1;" parent="1" vertex="1">
                    <mxGeometry x="1550" y="827" width="120" height="60" as="geometry"/>
                </mxCell>
                <mxCell id="2_33ajj9EVAp_yL2VxGF-80" value="zk" style="rounded=1;whiteSpace=wrap;html=1;" parent="1" vertex="1">
                    <mxGeometry x="1550" y="890" width="120" height="60" as="geometry"/>
                </mxCell>
                <mxCell id="2" value="客户端" style="rounded=1;whiteSpace=wrap;html=1;fillColor=#d5e8d4;strokeColor=#82b366;" vertex="1" parent="1">
                    <mxGeometry x="625" y="1410" width="185" height="70" as="geometry"/>
                </mxCell>
                <mxCell id="5" value="proxy" style="rounded=1;whiteSpace=wrap;html=1;fillColor=#f8cecc;strokeColor=#b85450;" vertex="1" parent="1">
                    <mxGeometry x="620" y="1590" width="190" height="71" as="geometry"/>
                </mxCell>
                <mxCell id="6" value="server" style="rounded=1;whiteSpace=wrap;html=1;fillColor=#fff2cc;strokeColor=#d6b656;" vertex="1" parent="1">
                    <mxGeometry x="510" y="1801" width="120" height="60" as="geometry"/>
                </mxCell>
                <mxCell id="7" value="server" style="rounded=1;whiteSpace=wrap;html=1;fillColor=#fff2cc;strokeColor=#d6b656;" vertex="1" parent="1">
                    <mxGeometry x="660" y="1801" width="120" height="60" as="geometry"/>
                </mxCell>
                <mxCell id="8" value="server" style="rounded=1;whiteSpace=wrap;html=1;fillColor=#fff2cc;strokeColor=#d6b656;" vertex="1" parent="1">
                    <mxGeometry x="810" y="1801" width="120" height="60" as="geometry"/>
                </mxCell>
                <mxCell id="9" value="" style="endArrow=classic;html=1;rounded=0;exitX=0.25;exitY=1;exitDx=0;exitDy=0;entryX=0.5;entryY=0;entryDx=0;entryDy=0;" edge="1" parent="1" source="5" target="6">
                    <mxGeometry width="50" height="50" relative="1" as="geometry">
                        <mxPoint x="860" y="1601" as="sourcePoint"/>
                        <mxPoint x="910" y="1551" as="targetPoint"/>
                    </mxGeometry>
                </mxCell>
                <mxCell id="10" value="" style="endArrow=classic;html=1;" edge="1" parent="1">
                    <mxGeometry width="50" height="50" relative="1" as="geometry">
                        <mxPoint x="710" y="1660" as="sourcePoint"/>
                        <mxPoint x="710" y="1800" as="targetPoint"/>
                    </mxGeometry>
                </mxCell>
                <mxCell id="11" value="" style="endArrow=classic;html=1;exitX=0.75;exitY=1;exitDx=0;exitDy=0;entryX=0.5;entryY=0;entryDx=0;entryDy=0;" edge="1" parent="1" source="5" target="8">
                    <mxGeometry width="50" height="50" relative="1" as="geometry">
                        <mxPoint x="720" y="1670" as="sourcePoint"/>
                        <mxPoint x="720" y="1810" as="targetPoint"/>
                    </mxGeometry>
                </mxCell>
                <mxCell id="12" value="" style="endArrow=classic;html=1;entryX=0.25;entryY=0;entryDx=0;entryDy=0;exitX=0.25;exitY=1;exitDx=0;exitDy=0;" edge="1" parent="1" source="2" target="5">
                    <mxGeometry width="50" height="50" relative="1" as="geometry">
                        <mxPoint x="680" y="1460" as="sourcePoint"/>
                        <mxPoint x="730" y="1410" as="targetPoint"/>
                    </mxGeometry>
                </mxCell>
                <mxCell id="13" value="" style="endArrow=classic;html=1;entryX=0.75;entryY=1;entryDx=0;entryDy=0;exitX=0.75;exitY=0;exitDx=0;exitDy=0;" edge="1" parent="1" source="5" target="2">
                    <mxGeometry width="50" height="50" relative="1" as="geometry">
                        <mxPoint x="681.25" y="1470" as="sourcePoint"/>
                        <mxPoint x="677.5" y="1600" as="targetPoint"/>
                    </mxGeometry>
                </mxCell>
            </root>
        </mxGraphModel>
    </diagram>
</mxfile>